<?xml version="1.0" encoding="UTF-8"?>
<!DOCTYPE svg PUBLIC "-//W3C//DTD SVG 1.1//EN" "http://www.w3.org/Graphics/SVG/1.1/DTD/svg11.dtd">
<!-- Creator: CorelDRAW -->
<svg xmlns="http://www.w3.org/2000/svg" xml:space="preserve" width="1942.49mm" height="66.7054mm" version="1.1" style="shape-rendering:geometricPrecision; text-rendering:geometricPrecision; image-rendering:optimizeQuality; fill-rule:evenodd; clip-rule:evenodd"
viewBox="0 0 131241.91 4506.87"
 xmlns:xlink="http://www.w3.org/1999/xlink"
 xmlns:xodm="http://www.corel.com/coreldraw/odm/2003">
 <defs>
  <style type="text/css">
   <![CDATA[
    .fil1 {fill:#D4AF37}
    .fil0 {fill:#1D1D1D;fill-rule:nonzero}
   ]]>
  </style>
 </defs>
 <g id="Слой_x0020_1">
  <metadata id="CorelCorpID_0Corel-Layer"/>
  <path class="fil0" d="M131241.91 4042.71l-1557.5 0 -23133.42 0 -1557.29 0 -1557.72 0 -23133.42 0 -1557.29 0 -1557.72 0 -23133.42 0 -1557.29 0 -1557.72 0 -23133.42 0 -1557.29 0 -1557.72 0 -23133.42 0 -1557.29 0 0 -4042.71 26248.43 0 26248.43 0 26248.43 0 26248.43 0 26248.21 0 0 4042.71zm-124568.95 -2633.38c0,-198.86 -151.13,-361.23 -335.26,-361.23l-998.81 0c-184.12,0 -335.25,162.37 -335.25,361.23l0 1726.58c0,198.86 151.13,361.22 335.25,361.22l998.81 0c184.13,0 335.26,-162.36 335.26,-361.22l0 -1726.58zm3307.38 -361.23l-998.38 0c-184.56,0 -335.25,162.37 -335.25,361.23l0 1726.58c0,198.86 150.69,361.22 335.25,361.22l998.38 0c184.56,0 335.25,-162.36 335.25,-361.22l0 -1726.58c0,-198.86 -150.69,-361.23 -335.25,-361.23zm3978.32 361.23c0,-198.86 -151.13,-361.23 -335.25,-361.23l-998.38 0c-184.56,0 -335.69,162.37 -335.69,361.23l0 1726.58c0,198.86 151.13,361.22 335.69,361.22l998.38 0c184.12,0 335.25,-162.36 335.25,-361.22l0 -1726.58zm2309 -361.23c-184.56,0 -335.26,162.37 -335.26,361.23l0 1726.58c0,198.86 150.69,361.22 335.26,361.22l998.38 0c184.56,0 335.68,-162.36 335.68,-361.22l0 -1726.58c0,-198.86 -151.13,-361.23 -335.68,-361.23l-998.38 0zm4976.7 361.23c0,-198.86 -150.69,-361.23 -335.25,-361.23l-998.38 0c-184.56,0 -335.69,162.37 -335.69,361.23l0 1726.58c0,198.86 151.13,361.22 335.69,361.22l998.38 0c184.56,0 335.25,-162.36 335.25,-361.22l0 -1726.58zm3643.07 0c0,-198.86 -151.13,-361.23 -335.69,-361.23l-998.38 0c-184.56,0 -335.25,162.37 -335.25,361.23l0 1726.58c0,198.86 150.69,361.22 335.25,361.22l998.38 0c184.56,0 335.69,-162.36 335.69,-361.22l0 -1726.58zm-23526.87 1726.58c0,198.86 151.13,361.22 335.69,361.22l998.38 0c184.56,0 335.26,-162.36 335.26,-361.22l0 -1726.58c0,-198.86 -150.69,-361.23 -335.26,-361.23l-998.38 0c-184.56,0 -335.69,162.37 -335.69,361.23l0 1726.58zm31560.82 -1726.58c0,-198.86 -151.13,-361.23 -335.26,-361.23l-998.81 0c-184.12,0 -335.25,162.37 -335.25,361.23l0 1726.58c0,198.86 151.13,361.22 335.25,361.22l998.81 0c184.13,0 335.26,-162.36 335.26,-361.22l0 -1726.58zm3307.38 -361.23l-998.38 0c-184.56,0 -335.25,162.37 -335.25,361.23l0 1726.58c0,198.86 150.69,361.22 335.25,361.22l998.38 0c184.56,0 335.25,-162.36 335.25,-361.22l0 -1726.58c0,-198.86 -150.69,-361.23 -335.25,-361.23zm3978.32 361.23c0,-198.86 -151.13,-361.23 -335.25,-361.23l-998.38 0c-184.56,0 -335.69,162.37 -335.69,361.23l0 1726.58c0,198.86 151.13,361.22 335.69,361.22l998.38 0c184.12,0 335.25,-162.36 335.25,-361.22l0 -1726.58zm2309 -361.23c-184.56,0 -335.26,162.37 -335.26,361.23l0 1726.58c0,198.86 150.69,361.22 335.26,361.22l998.38 0c184.56,0 335.68,-162.36 335.68,-361.22l0 -1726.58c0,-198.86 -151.13,-361.23 -335.68,-361.23l-998.38 0zm4976.7 361.23c0,-198.86 -150.69,-361.23 -335.25,-361.23l-998.38 0c-184.56,0 -335.69,162.37 -335.69,361.23l0 1726.58c0,198.86 151.13,361.22 335.69,361.22l998.38 0c184.56,0 335.25,-162.36 335.25,-361.22l0 -1726.58zm3643.07 0c0,-198.86 -151.13,-361.23 -335.69,-361.23l-998.38 0c-184.56,0 -335.25,162.37 -335.25,361.23l0 1726.58c0,198.86 150.69,361.22 335.25,361.22l998.38 0c184.56,0 335.69,-162.36 335.69,-361.22l0 -1726.58zm-23526.87 1726.58c0,198.86 151.13,361.22 335.69,361.22l998.38 0c184.56,0 335.26,-162.36 335.26,-361.22l0 -1726.58c0,-198.86 -150.69,-361.23 -335.26,-361.23l-998.38 0c-184.56,0 -335.69,162.37 -335.69,361.23l0 1726.58zm31560.82 -1726.58c0,-198.86 -151.13,-361.23 -335.26,-361.23l-998.81 0c-184.12,0 -335.25,162.37 -335.25,361.23l0 1726.58c0,198.86 151.13,361.22 335.25,361.22l998.81 0c184.13,0 335.26,-162.36 335.26,-361.22l0 -1726.58zm3307.38 -361.23l-998.38 0c-184.56,0 -335.25,162.37 -335.25,361.23l0 1726.58c0,198.86 150.69,361.22 335.25,361.22l998.38 0c184.56,0 335.25,-162.36 335.25,-361.22l0 -1726.58c0,-198.86 -150.69,-361.23 -335.25,-361.23zm3978.32 361.23c0,-198.86 -151.13,-361.23 -335.25,-361.23l-998.38 0c-184.56,0 -335.69,162.37 -335.69,361.23l0 1726.58c0,198.86 151.13,361.22 335.69,361.22l998.38 0c184.12,0 335.25,-162.36 335.25,-361.22l0 -1726.58zm2309 -361.23c-184.56,0 -335.26,162.37 -335.26,361.23l0 1726.58c0,198.86 150.69,361.22 335.26,361.22l998.38 0c184.56,0 335.68,-162.36 335.68,-361.22l0 -1726.58c0,-198.86 -151.13,-361.23 -335.68,-361.23l-998.38 0zm4976.7 361.23c0,-198.86 -150.69,-361.23 -335.25,-361.23l-998.38 0c-184.56,0 -335.69,162.37 -335.69,361.23l0 1726.58c0,198.86 151.13,361.22 335.69,361.22l998.38 0c184.56,0 335.25,-162.36 335.25,-361.22l0 -1726.58zm3643.07 0c0,-198.86 -151.13,-361.23 -335.69,-361.23l-998.38 0c-184.56,0 -335.25,162.37 -335.25,361.23l0 1726.58c0,198.86 150.69,361.22 335.25,361.22l998.38 0c184.56,0 335.69,-162.36 335.69,-361.22l0 -1726.58zm-23526.87 1726.58c0,198.86 151.13,361.22 335.69,361.22l998.38 0c184.56,0 335.26,-162.36 335.26,-361.22l0 -1726.58c0,-198.86 -150.69,-361.23 -335.26,-361.23l-998.38 0c-184.56,0 -335.69,162.37 -335.69,361.23l0 1726.58zm31560.82 -1726.58c0,-198.86 -151.13,-361.23 -335.26,-361.23l-998.81 0c-184.12,0 -335.25,162.37 -335.25,361.23l0 1726.58c0,198.86 151.13,361.22 335.25,361.22l998.81 0c184.13,0 335.26,-162.36 335.26,-361.22l0 -1726.58zm3307.38 -361.23l-998.38 0c-184.56,0 -335.25,162.37 -335.25,361.23l0 1726.58c0,198.86 150.69,361.22 335.25,361.22l998.38 0c184.56,0 335.25,-162.36 335.25,-361.22l0 -1726.58c0,-198.86 -150.69,-361.23 -335.25,-361.23zm3978.32 361.23c0,-198.86 -151.13,-361.23 -335.25,-361.23l-998.38 0c-184.56,0 -335.69,162.37 -335.69,361.23l0 1726.58c0,198.86 151.13,361.22 335.69,361.22l998.38 0c184.12,0 335.25,-162.36 335.25,-361.22l0 -1726.58zm2309 -361.23c-184.56,0 -335.26,162.37 -335.26,361.23l0 1726.58c0,198.86 150.69,361.22 335.26,361.22l998.38 0c184.56,0 335.68,-162.36 335.68,-361.22l0 -1726.58c0,-198.86 -151.13,-361.23 -335.68,-361.23l-998.38 0zm4976.7 361.23c0,-198.86 -150.69,-361.23 -335.25,-361.23l-998.38 0c-184.56,0 -335.69,162.37 -335.69,361.23l0 1726.58c0,198.86 151.13,361.22 335.69,361.22l998.38 0c184.56,0 335.25,-162.36 335.25,-361.22l0 -1726.58zm3643.07 0c0,-198.86 -151.13,-361.23 -335.69,-361.23l-998.38 0c-184.56,0 -335.25,162.37 -335.25,361.23l0 1726.58c0,198.86 150.69,361.22 335.25,361.22l998.38 0c184.56,0 335.69,-162.36 335.69,-361.22l0 -1726.58zm-23526.87 1726.58c0,198.86 151.13,361.22 335.69,361.22l998.38 0c184.56,0 335.26,-162.36 335.26,-361.22l0 -1726.58c0,-198.86 -150.69,-361.23 -335.26,-361.23l-998.38 0c-184.56,0 -335.69,162.37 -335.69,361.23l0 1726.58zm31560.82 -1726.58c0,-198.86 -151.13,-361.23 -335.26,-361.23l-998.81 0c-184.12,0 -335.25,162.37 -335.25,361.23l0 1726.58c0,198.86 151.13,361.22 335.25,361.22l998.81 0c184.13,0 335.26,-162.36 335.26,-361.22l0 -1726.58zm3307.38 -361.23l-998.38 0c-184.56,0 -335.25,162.37 -335.25,361.23l0 1726.58c0,198.86 150.69,361.22 335.25,361.22l998.38 0c184.56,0 335.25,-162.36 335.25,-361.22l0 -1726.58c0,-198.86 -150.69,-361.23 -335.25,-361.23zm3978.32 361.23c0,-198.86 -151.13,-361.23 -335.25,-361.23l-998.38 0c-184.56,0 -335.69,162.37 -335.69,361.23l0 1726.58c0,198.86 151.13,361.22 335.69,361.22l998.38 0c184.12,0 335.25,-162.36 335.25,-361.22l0 -1726.58zm2309 -361.23c-184.56,0 -335.26,162.37 -335.26,361.23l0 1726.58c0,198.86 150.69,361.22 335.26,361.22l998.38 0c184.56,0 335.68,-162.36 335.68,-361.22l0 -1726.58c0,-198.86 -151.13,-361.23 -335.68,-361.23l-998.38 0zm4976.7 361.23c0,-198.86 -150.69,-361.23 -335.25,-361.23l-998.38 0c-184.56,0 -335.69,162.37 -335.69,361.23l0 1726.58c0,198.86 151.13,361.22 335.69,361.22l998.38 0c184.56,0 335.25,-162.36 335.25,-361.22l0 -1726.58zm3643.07 0c0,-198.86 -151.13,-361.23 -335.69,-361.23l-998.38 0c-184.56,0 -335.25,162.37 -335.25,361.23l0 1726.58c0,198.86 150.69,361.22 335.25,361.22l998.38 0c184.56,0 335.69,-162.36 335.69,-361.22l0 -1726.58zm-23526.87 1726.58c0,198.86 151.13,361.22 335.69,361.22l998.38 0c184.56,0 335.26,-162.36 335.26,-361.22l0 -1726.58c0,-198.86 -150.69,-361.23 -335.26,-361.23l-998.38 0c-184.56,0 -335.69,162.37 -335.69,361.23l0 1726.58z"/>
  <polygon class="fil1" points="-0,4506.87 131241.91,4506.87 131241.91,4042.71 -0,4042.71 "/>
 </g>
</svg>
