<?xml version="1.0" encoding="UTF-8"?>
<!DOCTYPE svg PUBLIC "-//W3C//DTD SVG 1.1//EN" "http://www.w3.org/Graphics/SVG/1.1/DTD/svg11.dtd">
<!-- Creator: CorelDRAW -->
<svg xmlns="http://www.w3.org/2000/svg" xml:space="preserve" width="2330.99mm" height="59.8355mm" version="1.1" style="shape-rendering:geometricPrecision; text-rendering:geometricPrecision; image-rendering:optimizeQuality; fill-rule:evenodd; clip-rule:evenodd"
viewBox="0 0 188988.97 4851.26"
 xmlns:xlink="http://www.w3.org/1999/xlink"
 xmlns:xodm="http://www.corel.com/coreldraw/odm/2003">
 <defs>
  <style type="text/css">
   <![CDATA[
    .fil0 {fill:#1D1D1D;fill-rule:nonzero}
   ]]>
  </style>
 </defs>
 <g id="Слой_x0020_1">
  <metadata id="CorelCorpID_0Corel-Layer"/>
  <path class="fil0" d="M-0 4851.26l0 -4851.26 1869.26 0 27760.15 0 1868.75 0 1869.26 0 27760.15 0 1868.75 0 1869.26 0 27760.15 0 1868.75 0 1869.26 0 27760.15 0 1868.75 0 1869.26 0 27760.15 0 1868.75 0 1869.26 0 27760.15 0 1868.75 0 0 4851.26 -31498.16 0 -31498.16 0 -31498.16 0 -31498.16 0 -31498.16 0 -31498.16 0zm180981.41 -1691.2c0,238.63 181.35,433.48 402.31,433.48l1198.58 0c220.95,0 402.3,-194.84 402.3,-433.48l0 -2071.9c0,-238.63 -181.35,-433.46 -402.3,-433.46l-1198.58 0c-220.96,0 -402.31,194.83 -402.31,433.46l0 2071.9zm-3968.86 433.48l1198.06 0c221.48,0 402.3,-194.84 402.3,-433.48l0 -2071.9c0,-238.63 -180.83,-433.46 -402.3,-433.46l-1198.06 0c-221.48,0 -402.3,194.83 -402.3,433.46l0 2071.9c0,238.63 180.83,433.48 402.3,433.48zm-4773.99 -433.48c0,238.63 181.35,433.48 402.3,433.48l1198.06 0c221.48,0 402.83,-194.84 402.83,-433.48l0 -2071.9c0,-238.63 -181.35,-433.46 -402.83,-433.46l-1198.06 0c-220.95,0 -402.3,194.83 -402.3,433.46l0 2071.9zm-2770.81 433.48c221.48,0 402.31,-194.84 402.31,-433.48l0 -2071.9c0,-238.63 -180.83,-433.46 -402.31,-433.46l-1198.06 0c-221.47,0 -402.82,194.83 -402.82,433.46l0 2071.9c0,238.63 181.35,433.48 402.82,433.48l1198.06 0zm-5972.05 -433.48c0,238.63 180.83,433.48 402.3,433.48l1198.06 0c221.48,0 402.83,-194.84 402.83,-433.48l0 -2071.9c0,-238.63 -181.35,-433.46 -402.83,-433.46l-1198.06 0c-221.48,0 -402.3,194.83 -402.3,433.46l0 2071.9zm-4371.69 0c0,238.63 181.35,433.48 402.83,433.48l1198.06 0c221.48,0 402.3,-194.84 402.3,-433.48l0 -2071.9c0,-238.63 -180.83,-433.46 -402.3,-433.46l-1198.06 0c-221.48,0 -402.83,194.83 -402.83,433.46l0 2071.9zm28232.29 -2071.9c0,-238.63 -181.35,-433.46 -402.83,-433.46l-1198.05 0c-221.48,0 -402.31,194.83 -402.31,433.46l0 2071.9c0,238.63 180.83,433.48 402.31,433.48l1198.05 0c221.48,0 402.83,-194.84 402.83,-433.48l0 -2071.9zm-37873.04 2071.9c0,238.63 181.35,433.48 402.31,433.48l1198.58 0c220.95,0 402.3,-194.84 402.3,-433.48l0 -2071.9c0,-238.63 -181.35,-433.46 -402.3,-433.46l-1198.58 0c-220.96,0 -402.31,194.83 -402.31,433.46l0 2071.9zm-3968.86 433.48l1198.06 0c221.48,0 402.3,-194.84 402.3,-433.48l0 -2071.9c0,-238.63 -180.83,-433.46 -402.3,-433.46l-1198.06 0c-221.48,0 -402.3,194.83 -402.3,433.46l0 2071.9c0,238.63 180.83,433.48 402.3,433.48zm-4773.99 -433.48c0,238.63 181.35,433.48 402.3,433.48l1198.06 0c221.48,0 402.83,-194.84 402.83,-433.48l0 -2071.9c0,-238.63 -181.35,-433.46 -402.83,-433.46l-1198.06 0c-220.95,0 -402.3,194.83 -402.3,433.46l0 2071.9zm-2770.81 433.48c221.48,0 402.31,-194.84 402.31,-433.48l0 -2071.9c0,-238.63 -180.83,-433.46 -402.31,-433.46l-1198.06 0c-221.47,0 -402.82,194.83 -402.82,433.46l0 2071.9c0,238.63 181.35,433.48 402.82,433.48l1198.06 0zm-5972.05 -433.48c0,238.63 180.83,433.48 402.3,433.48l1198.06 0c221.48,0 402.83,-194.84 402.83,-433.48l0 -2071.9c0,-238.63 -181.35,-433.46 -402.83,-433.46l-1198.06 0c-221.48,0 -402.3,194.83 -402.3,433.46l0 2071.9zm-4371.69 0c0,238.63 181.35,433.48 402.83,433.48l1198.06 0c221.48,0 402.3,-194.84 402.3,-433.48l0 -2071.9c0,-238.63 -180.83,-433.46 -402.3,-433.46l-1198.06 0c-221.48,0 -402.83,194.83 -402.83,433.46l0 2071.9zm28232.29 -2071.9c0,-238.63 -181.35,-433.46 -402.83,-433.46l-1198.05 0c-221.48,0 -402.31,194.83 -402.31,433.46l0 2071.9c0,238.63 180.83,433.48 402.31,433.48l1198.05 0c221.48,0 402.83,-194.84 402.83,-433.48l0 -2071.9zm-37873.04 2071.9c0,238.63 181.35,433.48 402.31,433.48l1198.58 0c220.95,0 402.3,-194.84 402.3,-433.48l0 -2071.9c0,-238.63 -181.35,-433.46 -402.3,-433.46l-1198.58 0c-220.96,0 -402.31,194.83 -402.31,433.46l0 2071.9zm-3968.86 433.48l1198.06 0c221.48,0 402.3,-194.84 402.3,-433.48l0 -2071.9c0,-238.63 -180.83,-433.46 -402.3,-433.46l-1198.06 0c-221.48,0 -402.3,194.83 -402.3,433.46l0 2071.9c0,238.63 180.83,433.48 402.3,433.48zm-4773.99 -433.48c0,238.63 181.35,433.48 402.3,433.48l1198.06 0c221.48,0 402.83,-194.84 402.83,-433.48l0 -2071.9c0,-238.63 -181.35,-433.46 -402.83,-433.46l-1198.06 0c-220.95,0 -402.3,194.83 -402.3,433.46l0 2071.9zm-2770.81 433.48c221.48,0 402.31,-194.84 402.31,-433.48l0 -2071.9c0,-238.63 -180.83,-433.46 -402.31,-433.46l-1198.06 0c-221.47,0 -402.82,194.83 -402.82,433.46l0 2071.9c0,238.63 181.35,433.48 402.82,433.48l1198.06 0zm-5972.05 -433.48c0,238.63 180.83,433.48 402.3,433.48l1198.06 0c221.48,0 402.83,-194.84 402.83,-433.48l0 -2071.9c0,-238.63 -181.35,-433.46 -402.83,-433.46l-1198.06 0c-221.48,0 -402.3,194.83 -402.3,433.46l0 2071.9zm-4371.69 0c0,238.63 181.35,433.48 402.83,433.48l1198.06 0c221.48,0 402.3,-194.84 402.3,-433.48l0 -2071.9c0,-238.63 -180.83,-433.46 -402.3,-433.46l-1198.06 0c-221.48,0 -402.83,194.83 -402.83,433.46l0 2071.9zm28232.29 -2071.9c0,-238.63 -181.35,-433.46 -402.83,-433.46l-1198.05 0c-221.48,0 -402.31,194.83 -402.31,433.46l0 2071.9c0,238.63 180.83,433.48 402.31,433.48l1198.05 0c221.48,0 402.83,-194.84 402.83,-433.48l0 -2071.9zm-37873.04 2071.9c0,238.63 181.35,433.48 402.31,433.48l1198.58 0c220.95,0 402.3,-194.84 402.3,-433.48l0 -2071.9c0,-238.63 -181.35,-433.46 -402.3,-433.46l-1198.58 0c-220.96,0 -402.31,194.83 -402.31,433.46l0 2071.9zm-3968.86 433.48l1198.06 0c221.48,0 402.3,-194.84 402.3,-433.48l0 -2071.9c0,-238.63 -180.83,-433.46 -402.3,-433.46l-1198.06 0c-221.48,0 -402.3,194.83 -402.3,433.46l0 2071.9c0,238.63 180.83,433.48 402.3,433.48zm-4773.99 -433.48c0,238.63 181.35,433.48 402.3,433.48l1198.06 0c221.48,0 402.83,-194.84 402.83,-433.48l0 -2071.9c0,-238.63 -181.35,-433.46 -402.83,-433.46l-1198.06 0c-220.95,0 -402.3,194.83 -402.3,433.46l0 2071.9zm-2770.81 433.48c221.48,0 402.31,-194.84 402.31,-433.48l0 -2071.9c0,-238.63 -180.83,-433.46 -402.31,-433.46l-1198.06 0c-221.47,0 -402.82,194.83 -402.82,433.46l0 2071.9c0,238.63 181.35,433.48 402.82,433.48l1198.06 0zm-5972.05 -433.48c0,238.63 180.83,433.48 402.3,433.48l1198.06 0c221.48,0 402.83,-194.84 402.83,-433.48l0 -2071.9c0,-238.63 -181.35,-433.46 -402.83,-433.46l-1198.06 0c-221.48,0 -402.3,194.83 -402.3,433.46l0 2071.9zm-4371.69 0c0,238.63 181.35,433.48 402.83,433.48l1198.06 0c221.48,0 402.3,-194.84 402.3,-433.48l0 -2071.9c0,-238.63 -180.83,-433.46 -402.3,-433.46l-1198.06 0c-221.48,0 -402.83,194.83 -402.83,433.46l0 2071.9zm28232.29 -2071.9c0,-238.63 -181.35,-433.46 -402.83,-433.46l-1198.05 0c-221.48,0 -402.31,194.83 -402.31,433.46l0 2071.9c0,238.63 180.83,433.48 402.31,433.48l1198.05 0c221.48,0 402.83,-194.84 402.83,-433.48l0 -2071.9zm-37873.04 2071.9c0,238.63 181.35,433.48 402.31,433.48l1198.58 0c220.95,0 402.3,-194.84 402.3,-433.48l0 -2071.9c0,-238.63 -181.35,-433.46 -402.3,-433.46l-1198.58 0c-220.96,0 -402.31,194.83 -402.31,433.46l0 2071.9zm-3968.86 433.48l1198.06 0c221.48,0 402.3,-194.84 402.3,-433.48l0 -2071.9c0,-238.63 -180.83,-433.46 -402.3,-433.46l-1198.06 0c-221.48,0 -402.3,194.83 -402.3,433.46l0 2071.9c0,238.63 180.83,433.48 402.3,433.48zm-4773.99 -433.48c0,238.63 181.35,433.48 402.3,433.48l1198.06 0c221.48,0 402.83,-194.84 402.83,-433.48l0 -2071.9c0,-238.63 -181.35,-433.46 -402.83,-433.46l-1198.06 0c-220.95,0 -402.3,194.83 -402.3,433.46l0 2071.9zm-2770.81 433.48c221.48,0 402.31,-194.84 402.31,-433.48l0 -2071.9c0,-238.63 -180.83,-433.46 -402.31,-433.46l-1198.06 0c-221.47,0 -402.82,194.83 -402.82,433.46l0 2071.9c0,238.63 181.35,433.48 402.82,433.48l1198.06 0zm-5972.05 -433.48c0,238.63 180.83,433.48 402.3,433.48l1198.06 0c221.48,0 402.83,-194.84 402.83,-433.48l0 -2071.9c0,-238.63 -181.35,-433.46 -402.83,-433.46l-1198.06 0c-221.48,0 -402.3,194.83 -402.3,433.46l0 2071.9zm-4371.69 0c0,238.63 181.35,433.48 402.83,433.48l1198.06 0c221.48,0 402.3,-194.84 402.3,-433.48l0 -2071.9c0,-238.63 -180.83,-433.46 -402.3,-433.46l-1198.06 0c-221.48,0 -402.83,194.83 -402.83,433.46l0 2071.9zm28232.29 -2071.9c0,-238.63 -181.35,-433.46 -402.83,-433.46l-1198.05 0c-221.48,0 -402.31,194.83 -402.31,433.46l0 2071.9c0,238.63 180.83,433.48 402.31,433.48l1198.05 0c221.48,0 402.83,-194.84 402.83,-433.48l0 -2071.9zm-37873.04 2071.9c0,238.63 181.35,433.48 402.31,433.48l1198.58 0c220.95,0 402.3,-194.84 402.3,-433.48l0 -2071.9c0,-238.63 -181.35,-433.46 -402.3,-433.46l-1198.58 0c-220.96,0 -402.31,194.83 -402.31,433.46l0 2071.9zm-3968.86 433.48l1198.06 0c221.48,0 402.3,-194.84 402.3,-433.48l0 -2071.9c0,-238.63 -180.83,-433.46 -402.3,-433.46l-1198.06 0c-221.48,0 -402.3,194.83 -402.3,433.46l0 2071.9c0,238.63 180.83,433.48 402.3,433.48zm-4773.99 -433.48c0,238.63 181.35,433.48 402.3,433.48l1198.06 0c221.48,0 402.83,-194.84 402.83,-433.48l0 -2071.9c0,-238.63 -181.35,-433.46 -402.83,-433.46l-1198.06 0c-220.95,0 -402.3,194.83 -402.3,433.46l0 2071.9zm-2770.81 433.48c221.48,0 402.31,-194.84 402.31,-433.48l0 -2071.9c0,-238.63 -180.83,-433.46 -402.31,-433.46l-1198.06 0c-221.47,0 -402.82,194.83 -402.82,433.46l0 2071.9c0,238.63 181.35,433.48 402.82,433.48l1198.06 0zm-5972.05 -433.48c0,238.63 180.83,433.48 402.3,433.48l1198.06 0c221.48,0 402.83,-194.84 402.83,-433.48l0 -2071.9c0,-238.63 -181.35,-433.46 -402.83,-433.46l-1198.06 0c-221.48,0 -402.3,194.83 -402.3,433.46l0 2071.9zm-4371.69 0c0,238.63 181.35,433.48 402.83,433.48l1198.06 0c221.48,0 402.3,-194.84 402.3,-433.48l0 -2071.9c0,-238.63 -180.83,-433.46 -402.3,-433.46l-1198.06 0c-221.48,0 -402.83,194.83 -402.83,433.46l0 2071.9zm28232.29 -2071.9c0,-238.63 -181.35,-433.46 -402.83,-433.46l-1198.05 0c-221.48,0 -402.31,194.83 -402.31,433.46l0 2071.9c0,238.63 180.83,433.48 402.31,433.48l1198.05 0c221.48,0 402.83,-194.84 402.83,-433.48l0 -2071.9z"/>
 </g>
</svg>
